<!-- Generated by IcoMoon.io -->
<svg version="1.1" xmlns="http://www.w3.org/2000/svg" width="32" height="32" viewBox="0 0 32 32">
<title>calculator</title>
<path fill="#444" d="M29.442 32h-26.885c-0.974 0-1.766-0.792-1.766-1.766v-28.468c0-0.974 0.792-1.766 1.766-1.766h26.885c0.974 0 1.766 0.792 1.766 1.766v28.468c0 0.974-0.792 1.766-1.766 1.766zM2.558 1.096c-0.369 0-0.67 0.301-0.67 0.67v28.468c0 0.369 0.301 0.67 0.67 0.67h26.885c0.369 0 0.67-0.301 0.67-0.67v-28.468c0-0.369-0.301-0.67-0.67-0.67h-26.885zM26.318 28.765h-1.682c-1.027 0-1.862-0.835-1.862-1.862v-4.427c0-1.027 0.835-1.862 1.862-1.862h1.682c1.027 0 1.862 0.835 1.862 1.862v4.427c0 1.027-0.835 1.862-1.862 1.862zM24.636 21.71c-0.423 0-0.766 0.344-0.766 0.766v4.427c0 0.422 0.344 0.766 0.766 0.766h1.682c0.423 0 0.766-0.344 0.766-0.766v-4.427c0-0.422-0.344-0.766-0.766-0.766h-1.682zM20.061 28.765h-1.833c-0.986 0-1.787-0.802-1.787-1.787s0.802-1.787 1.787-1.787h1.833c0.985 0 1.787 0.802 1.787 1.787s-0.802 1.787-1.787 1.787zM18.228 26.287c-0.381 0-0.691 0.31-0.691 0.691s0.31 0.691 0.691 0.691h1.833c0.381 0 0.691-0.31 0.691-0.691s-0.31-0.691-0.691-0.691h-1.833zM13.729 28.765h-1.833c-0.985 0-1.787-0.802-1.787-1.787s0.802-1.787 1.787-1.787h1.833c0.985 0 1.787 0.802 1.787 1.787s-0.802 1.787-1.787 1.787zM11.896 26.287c-0.381 0-0.691 0.31-0.691 0.691s0.31 0.691 0.691 0.691h1.833c0.381 0 0.691-0.31 0.691-0.691s-0.31-0.691-0.691-0.691h-1.833zM7.397 28.765h-1.833c-0.985 0-1.787-0.802-1.787-1.787s0.802-1.787 1.787-1.787h1.833c0.985 0 1.787 0.802 1.787 1.787s-0.802 1.787-1.787 1.787zM5.564 26.287c-0.381 0-0.691 0.31-0.691 0.691s0.31 0.691 0.691 0.691h1.833c0.381 0 0.691-0.31 0.691-0.691s-0.31-0.691-0.691-0.691h-1.833zM20.061 24.154h-1.833c-0.986 0-1.787-0.802-1.787-1.787s0.802-1.787 1.787-1.787h1.833c0.985 0 1.787 0.802 1.787 1.787s-0.802 1.787-1.787 1.787zM18.228 21.676c-0.381 0-0.691 0.31-0.691 0.691s0.31 0.691 0.691 0.691h1.833c0.381 0 0.691-0.31 0.691-0.691s-0.31-0.691-0.691-0.691h-1.833zM13.729 24.154h-1.833c-0.985 0-1.787-0.802-1.787-1.787s0.802-1.787 1.787-1.787h1.833c0.985 0 1.787 0.802 1.787 1.787s-0.802 1.787-1.787 1.787zM11.896 21.676c-0.381 0-0.691 0.31-0.691 0.691s0.31 0.691 0.691 0.691h1.833c0.381 0 0.691-0.31 0.691-0.691s-0.31-0.691-0.691-0.691h-1.833zM7.397 24.154h-1.833c-0.985 0-1.787-0.802-1.787-1.787s0.802-1.787 1.787-1.787h1.833c0.985 0 1.787 0.802 1.787 1.787s-0.802 1.787-1.787 1.787zM5.564 21.676c-0.381 0-0.691 0.31-0.691 0.691s0.31 0.691 0.691 0.691h1.833c0.381 0 0.691-0.31 0.691-0.691s-0.31-0.691-0.691-0.691h-1.833zM26.393 19.542h-1.833c-0.985 0-1.787-0.802-1.787-1.787s0.802-1.787 1.787-1.787h1.833c0.985 0 1.787 0.802 1.787 1.787s-0.802 1.787-1.787 1.787zM24.561 17.064c-0.381 0-0.691 0.31-0.691 0.691s0.31 0.691 0.691 0.691h1.833c0.381 0 0.691-0.31 0.691-0.691s-0.31-0.691-0.691-0.691h-1.833zM20.061 19.542h-1.833c-0.986 0-1.787-0.802-1.787-1.787s0.802-1.787 1.787-1.787h1.833c0.985 0 1.787 0.802 1.787 1.787s-0.802 1.787-1.787 1.787zM18.228 17.064c-0.381 0-0.691 0.31-0.691 0.691s0.31 0.691 0.691 0.691h1.833c0.381 0 0.691-0.31 0.691-0.691s-0.31-0.691-0.691-0.691h-1.833zM13.729 19.542h-1.833c-0.985 0-1.787-0.802-1.787-1.787s0.802-1.787 1.787-1.787h1.833c0.985 0 1.787 0.802 1.787 1.787s-0.802 1.787-1.787 1.787zM11.896 17.064c-0.381 0-0.691 0.31-0.691 0.691s0.31 0.691 0.691 0.691h1.833c0.381 0 0.691-0.31 0.691-0.691s-0.31-0.691-0.691-0.691h-1.833zM7.397 19.542h-1.833c-0.985 0-1.787-0.802-1.787-1.787s0.802-1.787 1.787-1.787h1.833c0.985 0 1.787 0.802 1.787 1.787s-0.802 1.787-1.787 1.787zM5.564 17.064c-0.381 0-0.691 0.31-0.691 0.691s0.31 0.691 0.691 0.691h1.833c0.381 0 0.691-0.31 0.691-0.691s-0.31-0.691-0.691-0.691h-1.833zM26.393 14.931h-1.833c-0.985 0-1.787-0.802-1.787-1.787s0.802-1.787 1.787-1.787h1.833c0.985 0 1.787 0.802 1.787 1.787s-0.802 1.787-1.787 1.787zM24.561 12.453c-0.381 0-0.691 0.31-0.691 0.691s0.31 0.691 0.691 0.691h1.833c0.381 0 0.691-0.31 0.691-0.691s-0.31-0.691-0.691-0.691h-1.833zM20.061 14.931h-1.833c-0.986 0-1.787-0.802-1.787-1.787s0.802-1.787 1.787-1.787h1.833c0.985 0 1.787 0.802 1.787 1.787s-0.802 1.787-1.787 1.787zM18.228 12.453c-0.381 0-0.691 0.31-0.691 0.691s0.31 0.691 0.691 0.691h1.833c0.381 0 0.691-0.31 0.691-0.691s-0.31-0.691-0.691-0.691h-1.833zM13.729 14.931h-1.833c-0.985 0-1.787-0.802-1.787-1.787s0.802-1.787 1.787-1.787h1.833c0.985 0 1.787 0.802 1.787 1.787s-0.802 1.787-1.787 1.787zM11.896 12.453c-0.381 0-0.691 0.31-0.691 0.691s0.31 0.691 0.691 0.691h1.833c0.381 0 0.691-0.31 0.691-0.691s-0.31-0.691-0.691-0.691h-1.833zM7.397 14.931h-1.833c-0.985 0-1.787-0.802-1.787-1.787s0.802-1.787 1.787-1.787h1.833c0.985 0 1.787 0.802 1.787 1.787s-0.802 1.787-1.787 1.787zM5.564 12.453c-0.381 0-0.691 0.31-0.691 0.691s0.31 0.691 0.691 0.691h1.833c0.381 0 0.691-0.31 0.691-0.691s-0.31-0.691-0.691-0.691h-1.833zM27.632 9.321h-23.307c-0.303 0-0.548-0.245-0.548-0.548v-5.317c0-0.303 0.245-0.548 0.548-0.548h23.307c0.303 0 0.548 0.245 0.548 0.548v5.317c0 0.303-0.245 0.548-0.548 0.548zM4.873 8.225h22.211v-4.221h-22.211v4.221z"></path>
</svg>
